<svg width="52" height="9" viewBox="0 0 52 9" fill="none" xmlns="http://www.w3.org/2000/svg">
<g id="Frame 427318817">
<g id="Vector">
<path d="M4.141 0.536444C4.30314 0.207905 4.77163 0.207904 4.93377 0.536443L5.99346 2.6836C6.05784 2.81407 6.18231 2.90449 6.32628 2.92541L8.69581 3.26973C9.05838 3.32241 9.20315 3.76797 8.94079 4.0237L7.22618 5.69503C7.122 5.79658 7.07446 5.9429 7.09906 6.08629L7.50382 8.44625C7.56575 8.80735 7.18674 9.08272 6.86245 8.91223L4.74308 7.79801C4.6143 7.73031 4.46046 7.73031 4.33169 7.79801L2.21231 8.91223C1.88802 9.08272 1.50901 8.80735 1.57094 8.44625L1.97571 6.08629C2.0003 5.9429 1.95276 5.79658 1.84858 5.69503L0.133972 4.0237C-0.128382 3.76797 0.0163876 3.32241 0.378952 3.26973L2.74848 2.92541C2.89246 2.90449 3.01692 2.81407 3.08131 2.6836L4.141 0.536444ZM14.7498 0.536444C14.9119 0.207905 15.3804 0.207904 15.5426 0.536443L16.6022 2.6836C16.6666 2.81407 16.7911 2.90449 16.9351 2.92541L19.3046 3.26973C19.6672 3.32241 19.8119 3.76797 19.5496 4.0237L17.835 5.69503C17.7308 5.79658 17.6833 5.9429 17.7078 6.08629L18.1126 8.44625C18.1745 8.80735 17.7955 9.08272 17.4712 8.91223L15.3519 7.79801C15.2231 7.73031 15.0692 7.73031 14.9405 7.79801L12.8211 8.91223C12.4968 9.08272 12.1178 8.80735 12.1797 8.44625L12.5845 6.08629C12.6091 5.9429 12.5616 5.79658 12.4574 5.69503L10.7428 4.0237C10.4804 3.76797 10.6252 3.32241 10.9877 3.26973L13.3573 2.92541C13.5012 2.90449 13.6257 2.81407 13.6901 2.6836L14.7498 0.536444ZM25.3586 0.536444C25.5207 0.207905 25.9892 0.207904 26.1513 0.536443L27.211 2.6836C27.2754 2.81407 27.3999 2.90449 27.5439 2.92541L29.9134 3.26973C30.2759 3.32241 30.4207 3.76797 30.1584 4.0237L28.4438 5.69503C28.3396 5.79658 28.292 5.9429 28.3166 6.08629L28.7214 8.44625C28.7833 8.80735 28.4043 9.08272 28.08 8.91223L25.9607 7.79801C25.8319 7.73031 25.678 7.73031 25.5493 7.79801L23.4299 8.91223C23.1056 9.08272 22.7266 8.80735 22.7885 8.44625L23.1933 6.08629C23.2179 5.9429 23.1703 5.79658 23.0662 5.69503L21.3515 4.0237C21.0892 3.76797 21.234 3.32241 21.5965 3.26973L23.9661 2.92541C24.11 2.90449 24.2345 2.81407 24.2989 2.6836L25.3586 0.536444ZM35.9674 0.536444C36.1295 0.207905 36.598 0.207904 36.7601 0.536443L37.8198 2.6836C37.8842 2.81407 38.0087 2.90449 38.1526 2.92541L40.5222 3.26973C40.8847 3.32241 41.0295 3.76797 40.7672 4.0237L39.0525 5.69503C38.9484 5.79658 38.9008 5.9429 38.9254 6.08629L39.3302 8.44625C39.3921 8.80735 39.0131 9.08272 38.6888 8.91223L36.5694 7.79801C36.4407 7.73031 36.2868 7.73031 36.1581 7.79801L34.0387 8.91223C33.7144 9.08272 33.3354 8.80735 33.3973 8.44625L33.8021 6.08629C33.8267 5.9429 33.7791 5.79658 33.6749 5.69503L31.9603 4.0237C31.698 3.76797 31.8428 3.32241 32.2053 3.26973L34.5748 2.92541C34.7188 2.90449 34.8433 2.81407 34.9077 2.6836L35.9674 0.536444ZM46.5761 0.536444C46.7383 0.207905 47.2068 0.207904 47.3689 0.536443L48.4286 2.6836C48.493 2.81407 48.6175 2.90449 48.7614 2.92541L51.131 3.26973C51.4935 3.32241 51.6383 3.76797 51.3759 4.0237L49.6613 5.69503C49.5572 5.79658 49.5096 5.9429 49.5342 6.08629L49.939 8.44625C50.0009 8.80735 49.6219 9.08272 49.2976 8.91223L47.1782 7.79801C47.0495 7.73031 46.8956 7.73031 46.7668 7.79801L44.6475 8.91223C44.3232 9.08272 43.9442 8.80735 44.0061 8.44625L44.4109 6.08629C44.4355 5.9429 44.3879 5.79658 44.2837 5.69503L42.5691 4.0237C42.3068 3.76797 42.4515 3.32241 42.8141 3.26973L45.1836 2.92541C45.3276 2.90449 45.4521 2.81407 45.5165 2.6836L46.5761 0.536444Z" fill="#FFC700"/>
<path d="M4.141 0.536444C4.30314 0.207905 4.77163 0.207904 4.93377 0.536443L5.99346 2.6836C6.05784 2.81407 6.18231 2.90449 6.32628 2.92541L8.69581 3.26973C9.05838 3.32241 9.20315 3.76797 8.94079 4.0237L7.22618 5.69503C7.122 5.79658 7.07446 5.9429 7.09906 6.08629L7.50382 8.44625C7.56575 8.80735 7.18674 9.08272 6.86245 8.91223L4.74308 7.79801C4.6143 7.73031 4.46046 7.73031 4.33169 7.79801L2.21231 8.91223C1.88802 9.08272 1.50901 8.80735 1.57094 8.44625L1.97571 6.08629C2.0003 5.9429 1.95276 5.79658 1.84858 5.69503L0.133972 4.0237C-0.128382 3.76797 0.0163876 3.32241 0.378952 3.26973L2.74848 2.92541C2.89246 2.90449 3.01692 2.81407 3.08131 2.6836L4.141 0.536444ZM14.7498 0.536444C14.9119 0.207905 15.3804 0.207904 15.5426 0.536443L16.6022 2.6836C16.6666 2.81407 16.7911 2.90449 16.9351 2.92541L19.3046 3.26973C19.6672 3.32241 19.8119 3.76797 19.5496 4.0237L17.835 5.69503C17.7308 5.79658 17.6833 5.9429 17.7078 6.08629L18.1126 8.44625C18.1745 8.80735 17.7955 9.08272 17.4712 8.91223L15.3519 7.79801C15.2231 7.73031 15.0692 7.73031 14.9405 7.79801L12.8211 8.91223C12.4968 9.08272 12.1178 8.80735 12.1797 8.44625L12.5845 6.08629C12.6091 5.9429 12.5616 5.79658 12.4574 5.69503L10.7428 4.0237C10.4804 3.76797 10.6252 3.32241 10.9877 3.26973L13.3573 2.92541C13.5012 2.90449 13.6257 2.81407 13.6901 2.6836L14.7498 0.536444ZM25.3586 0.536444C25.5207 0.207905 25.9892 0.207904 26.1513 0.536443L27.211 2.6836C27.2754 2.81407 27.3999 2.90449 27.5439 2.92541L29.9134 3.26973C30.2759 3.32241 30.4207 3.76797 30.1584 4.0237L28.4438 5.69503C28.3396 5.79658 28.292 5.9429 28.3166 6.08629L28.7214 8.44625C28.7833 8.80735 28.4043 9.08272 28.08 8.91223L25.9607 7.79801C25.8319 7.73031 25.678 7.73031 25.5493 7.79801L23.4299 8.91223C23.1056 9.08272 22.7266 8.80735 22.7885 8.44625L23.1933 6.08629C23.2179 5.9429 23.1703 5.79658 23.0662 5.69503L21.3515 4.0237C21.0892 3.76797 21.234 3.32241 21.5965 3.26973L23.9661 2.92541C24.11 2.90449 24.2345 2.81407 24.2989 2.6836L25.3586 0.536444ZM35.9674 0.536444C36.1295 0.207905 36.598 0.207904 36.7601 0.536443L37.8198 2.6836C37.8842 2.81407 38.0087 2.90449 38.1526 2.92541L40.5222 3.26973C40.8847 3.32241 41.0295 3.76797 40.7672 4.0237L39.0525 5.69503C38.9484 5.79658 38.9008 5.9429 38.9254 6.08629L39.3302 8.44625C39.3921 8.80735 39.0131 9.08272 38.6888 8.91223L36.5694 7.79801C36.4407 7.73031 36.2868 7.73031 36.1581 7.79801L34.0387 8.91223C33.7144 9.08272 33.3354 8.80735 33.3973 8.44625L33.8021 6.08629C33.8267 5.9429 33.7791 5.79658 33.6749 5.69503L31.9603 4.0237C31.698 3.76797 31.8428 3.32241 32.2053 3.26973L34.5748 2.92541C34.7188 2.90449 34.8433 2.81407 34.9077 2.6836L35.9674 0.536444ZM46.5761 0.536444C46.7383 0.207905 47.2068 0.207904 47.3689 0.536443L48.4286 2.6836C48.493 2.81407 48.6175 2.90449 48.7614 2.92541L51.131 3.26973C51.4935 3.32241 51.6383 3.76797 51.3759 4.0237L49.6613 5.69503C49.5572 5.79658 49.5096 5.9429 49.5342 6.08629L49.939 8.44625C50.0009 8.80735 49.6219 9.08272 49.2976 8.91223L47.1782 7.79801C47.0495 7.73031 46.8956 7.73031 46.7668 7.79801L44.6475 8.91223C44.3232 9.08272 43.9442 8.80735 44.0061 8.44625L44.4109 6.08629C44.4355 5.9429 44.3879 5.79658 44.2837 5.69503L42.5691 4.0237C42.3068 3.76797 42.4515 3.32241 42.8141 3.26973L45.1836 2.92541C45.3276 2.90449 45.4521 2.81407 45.5165 2.6836L46.5761 0.536444Z" fill="#FFC700"/>
<path d="M4.141 0.536444C4.30314 0.207905 4.77163 0.207904 4.93377 0.536443L5.99346 2.6836C6.05784 2.81407 6.18231 2.90449 6.32628 2.92541L8.69581 3.26973C9.05838 3.32241 9.20315 3.76797 8.94079 4.0237L7.22618 5.69503C7.122 5.79658 7.07446 5.9429 7.09906 6.08629L7.50382 8.44625C7.56575 8.80735 7.18674 9.08272 6.86245 8.91223L4.74308 7.79801C4.6143 7.73031 4.46046 7.73031 4.33169 7.79801L2.21231 8.91223C1.88802 9.08272 1.50901 8.80735 1.57094 8.44625L1.97571 6.08629C2.0003 5.9429 1.95276 5.79658 1.84858 5.69503L0.133972 4.0237C-0.128382 3.76797 0.0163876 3.32241 0.378952 3.26973L2.74848 2.92541C2.89246 2.90449 3.01692 2.81407 3.08131 2.6836L4.141 0.536444ZM14.7498 0.536444C14.9119 0.207905 15.3804 0.207904 15.5426 0.536443L16.6022 2.6836C16.6666 2.81407 16.7911 2.90449 16.9351 2.92541L19.3046 3.26973C19.6672 3.32241 19.8119 3.76797 19.5496 4.0237L17.835 5.69503C17.7308 5.79658 17.6833 5.9429 17.7078 6.08629L18.1126 8.44625C18.1745 8.80735 17.7955 9.08272 17.4712 8.91223L15.3519 7.79801C15.2231 7.73031 15.0692 7.73031 14.9405 7.79801L12.8211 8.91223C12.4968 9.08272 12.1178 8.80735 12.1797 8.44625L12.5845 6.08629C12.6091 5.9429 12.5616 5.79658 12.4574 5.69503L10.7428 4.0237C10.4804 3.76797 10.6252 3.32241 10.9877 3.26973L13.3573 2.92541C13.5012 2.90449 13.6257 2.81407 13.6901 2.6836L14.7498 0.536444ZM25.3586 0.536444C25.5207 0.207905 25.9892 0.207904 26.1513 0.536443L27.211 2.6836C27.2754 2.81407 27.3999 2.90449 27.5439 2.92541L29.9134 3.26973C30.2759 3.32241 30.4207 3.76797 30.1584 4.0237L28.4438 5.69503C28.3396 5.79658 28.292 5.9429 28.3166 6.08629L28.7214 8.44625C28.7833 8.80735 28.4043 9.08272 28.08 8.91223L25.9607 7.79801C25.8319 7.73031 25.678 7.73031 25.5493 7.79801L23.4299 8.91223C23.1056 9.08272 22.7266 8.80735 22.7885 8.44625L23.1933 6.08629C23.2179 5.9429 23.1703 5.79658 23.0662 5.69503L21.3515 4.0237C21.0892 3.76797 21.234 3.32241 21.5965 3.26973L23.9661 2.92541C24.11 2.90449 24.2345 2.81407 24.2989 2.6836L25.3586 0.536444ZM35.9674 0.536444C36.1295 0.207905 36.598 0.207904 36.7601 0.536443L37.8198 2.6836C37.8842 2.81407 38.0087 2.90449 38.1526 2.92541L40.5222 3.26973C40.8847 3.32241 41.0295 3.76797 40.7672 4.0237L39.0525 5.69503C38.9484 5.79658 38.9008 5.9429 38.9254 6.08629L39.3302 8.44625C39.3921 8.80735 39.0131 9.08272 38.6888 8.91223L36.5694 7.79801C36.4407 7.73031 36.2868 7.73031 36.1581 7.79801L34.0387 8.91223C33.7144 9.08272 33.3354 8.80735 33.3973 8.44625L33.8021 6.08629C33.8267 5.9429 33.7791 5.79658 33.6749 5.69503L31.9603 4.0237C31.698 3.76797 31.8428 3.32241 32.2053 3.26973L34.5748 2.92541C34.7188 2.90449 34.8433 2.81407 34.9077 2.6836L35.9674 0.536444ZM46.5761 0.536444C46.7383 0.207905 47.2068 0.207904 47.3689 0.536443L48.4286 2.6836C48.493 2.81407 48.6175 2.90449 48.7614 2.92541L51.131 3.26973C51.4935 3.32241 51.6383 3.76797 51.3759 4.0237L49.6613 5.69503C49.5572 5.79658 49.5096 5.9429 49.5342 6.08629L49.939 8.44625C50.0009 8.80735 49.6219 9.08272 49.2976 8.91223L47.1782 7.79801C47.0495 7.73031 46.8956 7.73031 46.7668 7.79801L44.6475 8.91223C44.3232 9.08272 43.9442 8.80735 44.0061 8.44625L44.4109 6.08629C44.4355 5.9429 44.3879 5.79658 44.2837 5.69503L42.5691 4.0237C42.3068 3.76797 42.4515 3.32241 42.8141 3.26973L45.1836 2.92541C45.3276 2.90449 45.4521 2.81407 45.5165 2.6836L46.5761 0.536444Z" fill="#FFC700"/>
<path d="M4.141 0.536444C4.30314 0.207905 4.77163 0.207904 4.93377 0.536443L5.99346 2.6836C6.05784 2.81407 6.18231 2.90449 6.32628 2.92541L8.69581 3.26973C9.05838 3.32241 9.20315 3.76797 8.94079 4.0237L7.22618 5.69503C7.122 5.79658 7.07446 5.9429 7.09906 6.08629L7.50382 8.44625C7.56575 8.80735 7.18674 9.08272 6.86245 8.91223L4.74308 7.79801C4.6143 7.73031 4.46046 7.73031 4.33169 7.79801L2.21231 8.91223C1.88802 9.08272 1.50901 8.80735 1.57094 8.44625L1.97571 6.08629C2.0003 5.9429 1.95276 5.79658 1.84858 5.69503L0.133972 4.0237C-0.128382 3.76797 0.0163876 3.32241 0.378952 3.26973L2.74848 2.92541C2.89246 2.90449 3.01692 2.81407 3.08131 2.6836L4.141 0.536444ZM14.7498 0.536444C14.9119 0.207905 15.3804 0.207904 15.5426 0.536443L16.6022 2.6836C16.6666 2.81407 16.7911 2.90449 16.9351 2.92541L19.3046 3.26973C19.6672 3.32241 19.8119 3.76797 19.5496 4.0237L17.835 5.69503C17.7308 5.79658 17.6833 5.9429 17.7078 6.08629L18.1126 8.44625C18.1745 8.80735 17.7955 9.08272 17.4712 8.91223L15.3519 7.79801C15.2231 7.73031 15.0692 7.73031 14.9405 7.79801L12.8211 8.91223C12.4968 9.08272 12.1178 8.80735 12.1797 8.44625L12.5845 6.08629C12.6091 5.9429 12.5616 5.79658 12.4574 5.69503L10.7428 4.0237C10.4804 3.76797 10.6252 3.32241 10.9877 3.26973L13.3573 2.92541C13.5012 2.90449 13.6257 2.81407 13.6901 2.6836L14.7498 0.536444ZM25.3586 0.536444C25.5207 0.207905 25.9892 0.207904 26.1513 0.536443L27.211 2.6836C27.2754 2.81407 27.3999 2.90449 27.5439 2.92541L29.9134 3.26973C30.2759 3.32241 30.4207 3.76797 30.1584 4.0237L28.4438 5.69503C28.3396 5.79658 28.292 5.9429 28.3166 6.08629L28.7214 8.44625C28.7833 8.80735 28.4043 9.08272 28.08 8.91223L25.9607 7.79801C25.8319 7.73031 25.678 7.73031 25.5493 7.79801L23.4299 8.91223C23.1056 9.08272 22.7266 8.80735 22.7885 8.44625L23.1933 6.08629C23.2179 5.9429 23.1703 5.79658 23.0662 5.69503L21.3515 4.0237C21.0892 3.76797 21.234 3.32241 21.5965 3.26973L23.9661 2.92541C24.11 2.90449 24.2345 2.81407 24.2989 2.6836L25.3586 0.536444ZM35.9674 0.536444C36.1295 0.207905 36.598 0.207904 36.7601 0.536443L37.8198 2.6836C37.8842 2.81407 38.0087 2.90449 38.1526 2.92541L40.5222 3.26973C40.8847 3.32241 41.0295 3.76797 40.7672 4.0237L39.0525 5.69503C38.9484 5.79658 38.9008 5.9429 38.9254 6.08629L39.3302 8.44625C39.3921 8.80735 39.0131 9.08272 38.6888 8.91223L36.5694 7.79801C36.4407 7.73031 36.2868 7.73031 36.1581 7.79801L34.0387 8.91223C33.7144 9.08272 33.3354 8.80735 33.3973 8.44625L33.8021 6.08629C33.8267 5.9429 33.7791 5.79658 33.6749 5.69503L31.9603 4.0237C31.698 3.76797 31.8428 3.32241 32.2053 3.26973L34.5748 2.92541C34.7188 2.90449 34.8433 2.81407 34.9077 2.6836L35.9674 0.536444ZM46.5761 0.536444C46.7383 0.207905 47.2068 0.207904 47.3689 0.536443L48.4286 2.6836C48.493 2.81407 48.6175 2.90449 48.7614 2.92541L51.131 3.26973C51.4935 3.32241 51.6383 3.76797 51.3759 4.0237L49.6613 5.69503C49.5572 5.79658 49.5096 5.9429 49.5342 6.08629L49.939 8.44625C50.0009 8.80735 49.6219 9.08272 49.2976 8.91223L47.1782 7.79801C47.0495 7.73031 46.8956 7.73031 46.7668 7.79801L44.6475 8.91223C44.3232 9.08272 43.9442 8.80735 44.0061 8.44625L44.4109 6.08629C44.4355 5.9429 44.3879 5.79658 44.2837 5.69503L42.5691 4.0237C42.3068 3.76797 42.4515 3.32241 42.8141 3.26973L45.1836 2.92541C45.3276 2.90449 45.4521 2.81407 45.5165 2.6836L46.5761 0.536444Z" fill="#FFC700"/>
<path d="M4.141 0.536444C4.30314 0.207905 4.77163 0.207904 4.93377 0.536443L5.99346 2.6836C6.05784 2.81407 6.18231 2.90449 6.32628 2.92541L8.69581 3.26973C9.05838 3.32241 9.20315 3.76797 8.94079 4.0237L7.22618 5.69503C7.122 5.79658 7.07446 5.9429 7.09906 6.08629L7.50382 8.44625C7.56575 8.80735 7.18674 9.08272 6.86245 8.91223L4.74308 7.79801C4.6143 7.73031 4.46046 7.73031 4.33169 7.79801L2.21231 8.91223C1.88802 9.08272 1.50901 8.80735 1.57094 8.44625L1.97571 6.08629C2.0003 5.9429 1.95276 5.79658 1.84858 5.69503L0.133972 4.0237C-0.128382 3.76797 0.0163876 3.32241 0.378952 3.26973L2.74848 2.92541C2.89246 2.90449 3.01692 2.81407 3.08131 2.6836L4.141 0.536444ZM14.7498 0.536444C14.9119 0.207905 15.3804 0.207904 15.5426 0.536443L16.6022 2.6836C16.6666 2.81407 16.7911 2.90449 16.9351 2.92541L19.3046 3.26973C19.6672 3.32241 19.8119 3.76797 19.5496 4.0237L17.835 5.69503C17.7308 5.79658 17.6833 5.9429 17.7078 6.08629L18.1126 8.44625C18.1745 8.80735 17.7955 9.08272 17.4712 8.91223L15.3519 7.79801C15.2231 7.73031 15.0692 7.73031 14.9405 7.79801L12.8211 8.91223C12.4968 9.08272 12.1178 8.80735 12.1797 8.44625L12.5845 6.08629C12.6091 5.9429 12.5616 5.79658 12.4574 5.69503L10.7428 4.0237C10.4804 3.76797 10.6252 3.32241 10.9877 3.26973L13.3573 2.92541C13.5012 2.90449 13.6257 2.81407 13.6901 2.6836L14.7498 0.536444ZM25.3586 0.536444C25.5207 0.207905 25.9892 0.207904 26.1513 0.536443L27.211 2.6836C27.2754 2.81407 27.3999 2.90449 27.5439 2.92541L29.9134 3.26973C30.2759 3.32241 30.4207 3.76797 30.1584 4.0237L28.4438 5.69503C28.3396 5.79658 28.292 5.9429 28.3166 6.08629L28.7214 8.44625C28.7833 8.80735 28.4043 9.08272 28.08 8.91223L25.9607 7.79801C25.8319 7.73031 25.678 7.73031 25.5493 7.79801L23.4299 8.91223C23.1056 9.08272 22.7266 8.80735 22.7885 8.44625L23.1933 6.08629C23.2179 5.9429 23.1703 5.79658 23.0662 5.69503L21.3515 4.0237C21.0892 3.76797 21.234 3.32241 21.5965 3.26973L23.9661 2.92541C24.11 2.90449 24.2345 2.81407 24.2989 2.6836L25.3586 0.536444ZM35.9674 0.536444C36.1295 0.207905 36.598 0.207904 36.7601 0.536443L37.8198 2.6836C37.8842 2.81407 38.0087 2.90449 38.1526 2.92541L40.5222 3.26973C40.8847 3.32241 41.0295 3.76797 40.7672 4.0237L39.0525 5.69503C38.9484 5.79658 38.9008 5.9429 38.9254 6.08629L39.3302 8.44625C39.3921 8.80735 39.0131 9.08272 38.6888 8.91223L36.5694 7.79801C36.4407 7.73031 36.2868 7.73031 36.1581 7.79801L34.0387 8.91223C33.7144 9.08272 33.3354 8.80735 33.3973 8.44625L33.8021 6.08629C33.8267 5.9429 33.7791 5.79658 33.6749 5.69503L31.9603 4.0237C31.698 3.76797 31.8428 3.32241 32.2053 3.26973L34.5748 2.92541C34.7188 2.90449 34.8433 2.81407 34.9077 2.6836L35.9674 0.536444ZM46.5761 0.536444C46.7383 0.207905 47.2068 0.207904 47.3689 0.536443L48.4286 2.6836C48.493 2.81407 48.6175 2.90449 48.7614 2.92541L51.131 3.26973C51.4935 3.32241 51.6383 3.76797 51.3759 4.0237L49.6613 5.69503C49.5572 5.79658 49.5096 5.9429 49.5342 6.08629L49.939 8.44625C50.0009 8.80735 49.6219 9.08272 49.2976 8.91223L47.1782 7.79801C47.0495 7.73031 46.8956 7.73031 46.7668 7.79801L44.6475 8.91223C44.3232 9.08272 43.9442 8.80735 44.0061 8.44625L44.4109 6.08629C44.4355 5.9429 44.3879 5.79658 44.2837 5.69503L42.5691 4.0237C42.3068 3.76797 42.4515 3.32241 42.8141 3.26973L45.1836 2.92541C45.3276 2.90449 45.4521 2.81407 45.5165 2.6836L46.5761 0.536444Z" fill="#FFC700"/>
</g>
</g>
</svg>
